{"title":"New Tricks S12E10  - The Crazy Gang x264 RB58.mp4","uid":12529842,"size":669560989,"categoryP":"video","categoryS":"tv_shows","magnet":"?xt=urn:btih:264882623727de022efe47be1fac828b9041afaf&amp;dn=New+Tricks+S12E10++-+The+Crazy+Gang+x264+RB58.mp4&amp;tr=udp%3A%2F%2Ftracker.leechers-paradise.org%3A6969&amp;tr=udp%3A%2F%2Fzer0day.ch%3A1337&amp;tr=udp%3A%2F%2Fopen.demonii.com%3A1337&amp;tr=udp%3A%2F%2Ftracker.coppersurfer.tk%3A6969&amp;tr=udp%3A%2F%2Fexodus.desync.com%3A6969","seeders":0,"leechers":1,"uploader":"RedBaron58","files":1,"time":1444226011,"description":"New Tricks S12E10  - The Crazy Gang  x264 mp4\r\n \nhttp://www.imdb.com/title/tt0362357/\r\n\r\nTrailer (sorry older series)\r\n\r\n\r\n\r\nPlease be patient My intial upload speed is limited.\r\nThank you for your kind comments and feedback on my other torrents, your feedback is welcome.\r\n\r\n\r\nAbout the Episode:\r\nThe team investigates the murder of a political activist 15 years earlier but, just as it is getting \r\nsomewhere, Ted orders the investigation to be halted and Ucos is threatened with closure following \r\nits perceived mishandling of the Hanway case. \r\nHowever, the team refuses to give up, and finds evidence of a cover-up involving top officials and \r\na multi-national drugs company.\r\n \r\nStarring Larry Lamb, Denis Lawson and Nicholas Lyndhurst\r\n\r\n\r\nI hope you enjoy.\r\n\r\n\r\nTechnical:\r\n\r\nGeneral\r\nComplete name                            : H:New Tricks S12E10  - The Crazy Gang x264 RB58.mp4\r\nFormat                                   : MPEG-4\r\nFormat profile                           : Base Media\r\nCodec ID                                 : isom\r\nFile size                                : 639 MiB\r\nDuration                                 : 58mn 43s\r\nOverall bit rate                         : 1 520 Kbps\r\nWriting application                      : Lavf54.63.104\r\n\r\nVideo\r\nID                                       : 1\r\nFormat                                   : AVC\r\nFormat/Info                              : Advanced Video Codec\r\nFormat profile                           :   \r\nFormat settings, CABAC                   : Yes\r\nFormat settings, ReFrames                : 4 frames\r\nCodec ID                                 : avc1\r\nCodec ID/Info                            : Advanced Video Coding\r\nDuration                                 : 58mn 43s\r\nBit rate                                 : 1 400 Kbps\r\nWidth                                    : 832 pixels\r\nHeight                                   : 468 pixels\r\nDisplay aspect ratio                     : 16:9\r\nFrame rate mode                          : Constant\r\nFrame rate                               : 25.000 fps\r\nColor space                              : YUV\r\nChroma subsampling                       : 4:2:0\r\nBit depth                                : 8 bits\r\nScan type                                : Progressive\r\nBits/(Pixel*Frame)                       : 0.144\r\nStream size                              : 588 MiB (92%)\r\nWriting library                          : x264 core 123 r2189 35cf912\r\nEncoding settings                        : cabac=1 / ref=3 / deblock=1:0:0\r\n\r\nAudio\r\nID                                       : 2\r\nFormat                                   : AAC\r\nFormat/Info                              : Advanced Audio Codec\r\nFormat profile                           : LC\r\nCodec ID                                 : 40\r\nDuration                                 : 58mn 43s\r\nBit rate mode                            : Constant\r\nBit rate                                 : 112 Kbps\r\nChannel(s)                               : 2 channels\r\nChannel positions                        : Front: L R\r\nSampling rate                            : 48.0 KHz\r\nCompression mode                         : Lossy\r\nStream size                              : 47.0 MiB (7%)","torrent":{"xt":"urn:btih:264882623727de022efe47be1fac828b9041afaf","amp;dn":"New+Tricks+S12E10++-+The+Crazy+Gang+x264+RB58.mp4","amp;tr":["udp%3A%2F%2Ftracker.leechers-paradise.org%3A6969","udp%3A%2F%2Fzer0day.ch%3A1337","udp%3A%2F%2Fopen.demonii.com%3A1337","udp%3A%2F%2Ftracker.coppersurfer.tk%3A6969","udp%3A%2F%2Fexodus.desync.com%3A6969"],"infoHash":"264882623727de022efe47be1fac828b9041afaf","infoHashBuffer":{"type":"Buffer","data":[38,72,130,98,55,39,222,2,46,254,71,190,31,172,130,139,144,65,175,175]},"announce":[],"urlList":[]}}